<svg width="100" height="100" viewBox="0 0 100 100" fill="none" xmlns="http://www.w3.org/2000/svg">
<path d="M90.9614 35.4767L51.5445 18.0003C50.5516 17.5661 49.4326 17.5661 48.4397 18.0003L9.02283 35.4767C7.71471 36.066 6.84789 37.322 6.81637 38.7332C6.78485 40.1443 7.74623 41.4469 9.03859 42.0827L12.4428 43.6954V56.6438C12.4428 57.9154 13.4988 58.9388 14.7911 58.9388C16.0835 58.9388 17.1395 57.9154 17.1395 56.6438V46.037L22.7659 48.9988V64.7074C22.7659 65.3277 22.9393 65.9325 23.286 66.4597C23.6485 66.987 32.2064 79.5476 49.4799 79.5476C67.2261 79.5476 75.4216 66.9249 75.7525 66.3977C76.0677 65.886 76.2726 65.3122 76.2726 64.7229V49.5261L91.1505 42.0827C92.4271 41.4469 93.2151 40.1443 93.1836 38.7332C93.1521 37.322 92.2695 36.066 90.9614 35.4767ZM69.7005 63.715C67.825 65.979 61.4736 73.1432 49.5114 73.1432C37.8644 73.1432 31.1978 66.01 29.3223 63.684V52.2863L48.2821 61.7611C48.8179 62.0247 49.4011 62.1643 49.9842 62.1643C50.5674 62.1643 51.1978 62.0247 51.7336 61.7611L69.7005 52.798V63.715ZM49.9842 54.3642L19.2041 39.0123L49.9842 25.3661L80.7644 39.0123L49.9842 54.3642ZM17.1079 62.0247C17.8014 62.707 18.2112 63.653 18.2112 64.6144C18.2112 65.5758 17.8014 66.5217 17.1079 67.2041C16.4145 67.8864 15.4373 68.274 14.4444 68.274C13.4515 68.274 12.4901 67.8864 11.7967 67.2196C11.1032 66.5373 10.6934 65.5913 10.6934 64.6299C10.6934 63.6685 11.1032 62.7225 11.7967 62.0402C12.5059 61.3579 13.4673 60.9702 14.4602 60.9702C15.4531 60.9702 16.3987 61.3424 17.1079 62.0247Z" fill="#C3454C"/>
</svg>
