<?xml version="1.0" encoding="UTF-8"?>
<svg width="100px" height="100px" viewBox="0 0 100 100" version="1.1" xmlns="http://www.w3.org/2000/svg" xmlns:xlink="http://www.w3.org/1999/xlink">
    <!-- Generator: Sketch 52.5 (67469) - http://www.bohemiancoding.com/sketch -->
    <title>050</title>
    <desc>Created with Sketch.</desc>
    <g id="Page-1" stroke="none" stroke-width="1" fill="none" fill-rule="evenodd">
        <g id="1-50" fill="#000000">
            <g id="050">
                <path d="M0,50 C0,22.3860625 22.3860625,0 50,0 C77.600625,0.0309245625 99.969375,22.3990625 100,50 C100,77.61375 77.61375,100 50,100 C22.3860625,100 0,77.61375 0,50 Z M9.3758125,50.0000625 C9.3758125,72.43625 27.564375,90.625 50.0008125,90.625 C72.426875,90.599375 90.6,72.425625 90.625625,50.0000625 C90.625625,27.563625 72.4375,9.3750625 50.0008125,9.3750625 C27.564375,9.3750625 9.3758125,27.563625 9.3758125,50.0000625 Z" id="Shape"></path>
                <path d="M48.221375,78.6 L52.621375,78.6 L52.621375,71.8625 C61.283875,71.3125 67.265,66.29375 67.265,58.9378125 L67.265,58.8003125 C67.265,51.8565625 62.865,47.8690625 52.415125,45.4628125 L52.415125,28.5503125 C56.058875,29.1690625 59.496375,30.6815625 62.79625,33.5003125 L65.7525,29.3753125 C61.765125,26.2815625 57.777625,24.3565625 52.621375,23.8753125 L52.621375,19.7503125 L48.221375,19.7503125 L48.221375,23.7378125 C39.765125,24.1503125 33.783875,29.3065625 33.783875,36.3878125 L33.783875,36.5253125 C33.783875,43.6753125 38.252625,47.4565625 48.427625,49.8628125 L48.427625,67.05 C43.271375,66.5 39.215125,64.23125 35.090125,60.5190625 L31.996375,64.64375 C36.808875,68.76875 42.102625,71.175 48.221375,71.725 L48.221375,78.6 Z M48.427625,44.5003125 C40.865125,42.5753125 39.077625,40.0315625 39.077625,36.1815625 L39.077625,36.0440625 C39.077625,31.8503125 42.652625,28.5503125 48.427625,28.3440625 L48.427625,44.5003125 Z M52.415125,67.25625 L52.415125,50.8253125 C60.046375,52.6815625 61.971375,55.0878125 61.971375,59.1440625 L61.971375,59.2815625 C61.971375,63.75 58.258875,66.98125 52.415125,67.25625 Z" id="Shape" fill-rule="nonzero"></path>
            </g>
        </g>
    </g>
</svg>